<?xml version="1.0" encoding="utf-8"?>
<!-- Generator: Adobe Illustrator 24.0.1, SVG Export Plug-In . SVG Version: 6.00 Build 0)  -->
<!DOCTYPE svg PUBLIC "-//W3C//DTD SVG 1.1//EN" "http://www.w3.org/Graphics/SVG/1.1/DTD/svg11.dtd" [
	<!ENTITY ns_extend "http://ns.adobe.com/Extensibility/1.0/">
	<!ENTITY ns_ai "http://ns.adobe.com/AdobeIllustrator/10.0/">
	<!ENTITY ns_graphs "http://ns.adobe.com/Graphs/1.0/">
	<!ENTITY ns_vars "http://ns.adobe.com/Variables/1.0/">
	<!ENTITY ns_imrep "http://ns.adobe.com/ImageReplacement/1.0/">
	<!ENTITY ns_sfw "http://ns.adobe.com/SaveForWeb/1.0/">
	<!ENTITY ns_custom "http://ns.adobe.com/GenericCustomNamespace/1.0/">
	<!ENTITY ns_adobe_xpath "http://ns.adobe.com/XPath/1.0/">
]>
<svg version="1.1" id="Layer_1" xmlns:x="&ns_extend;" xmlns:i="&ns_ai;" xmlns:graph="&ns_graphs;"
	 xmlns="http://www.w3.org/2000/svg" xmlns:xlink="http://www.w3.org/1999/xlink" x="0px" y="0px" viewBox="0 0 226.1 53.4"
	 style="enable-background:new 0 0 226.1 53.4;" xml:space="preserve">
<style type="text/css">
	.st0{fill:none;}
	.st1{fill-rule:evenodd;clip-rule:evenodd;fill:#CEA48E;}
	.st2{fill-rule:evenodd;clip-rule:evenodd;fill:#974159;}
</style>
<metadata>
	<sfw  xmlns="&ns_sfw;">
		<slices></slices>
		<sliceSourceBounds  bottomLeftOrigin="true" height="674.4" width="487.3" x="0.7" y="-677.4"></sliceSourceBounds>
	</sfw>
</metadata>
<path class="st0" d="M487.9,21.2"/>
<path class="st0" d="M487.9,677.4"/>
<path class="st1" d="M34.2,14.3c0.9,0.1,1.8,0.1,2.8,0.3c1,0.1,2,0.3,3.2,0.6c1.1-0.2,2.1-0.4,3.1-0.6c1-0.1,2-0.2,2.9-0.3l0,1
	c-1.4,0.1-2.4,0.6-2.9,1.6c-0.5,0.9-0.8,3-0.8,6.1c0,0.2,0,0.5,0,0.9c0,0.4,0,0.8,0,1c0,0.1,0,0.2,0,0.4c0,0.1,0,0.4,0,0.6v9.3
	c0,2.5,0.2,4.1,0.7,4.7c0.5,0.6,1.5,0.9,3,0.9c2.9,0,4.9-0.3,5.9-1c1-0.7,1.7-1.9,2-3.7h1.1c-0.1,0.8-0.2,1.5-0.4,2.2
	c-0.2,0.7-0.4,1.5-0.7,2.1c0.1,0.3,0.2,0.5,0.3,0.7c0.1,0.2,0.1,0.4,0.1,0.5c0,0.5-0.3,0.9-0.8,1C53.2,43,51.9,43,49.8,43h-1.2
	c-1.8,0-3.5-0.1-4.9-0.2c-1.5-0.1-2.8-0.4-4-0.6c-1.1,0.3-2,0.5-2.9,0.6C35.8,42.9,35,43,34.2,43v-1c1.4-0.1,2.3-0.6,2.8-1.5
	c0.5-0.9,0.7-3.2,0.7-7v-7.7c0-0.6,0-1.2,0-1.8c0-0.6,0-0.9,0-0.9c0-3.3-0.2-5.4-0.7-6.3c-0.5-0.9-1.4-1.4-2.7-1.5L34.2,14.3
	L34.2,14.3L34.2,14.3z M60.4,34.4c0,3.3-0.2,5.4-0.7,6.2c-0.5,0.9-1.4,1.3-2.8,1.4l0,1c0.7,0,1.5-0.1,2.4-0.2c0.9-0.1,2-0.3,3.3-0.6
	c1.2,0.3,2.4,0.6,3.5,0.7c1.2,0.1,2.3,0.2,3.4,0.2c3.2,0,5.6-0.7,7.4-2.1c1.8-1.4,2.6-3.4,2.6-6c0-2.2-0.7-4-2-5.3
	c-1.3-1.3-3.3-2.1-5.9-2.3v-0.3c1.9-0.4,3.3-1.2,4.4-2.4c1-1.2,1.5-2.6,1.5-4.2c0-2.1-0.7-3.7-2.1-4.8c-1.4-1.1-3.4-1.7-6-1.7
	c-1.1,0-2.2,0.1-3.3,0.2c-1.1,0.2-2.4,0.4-3.6,0.8c-1.3-0.3-2.3-0.5-3.2-0.6c-0.9-0.1-1.7-0.2-2.4-0.2l0,0.9
	c1.4,0.1,2.3,0.7,2.8,1.6c0.5,0.9,0.7,3,0.7,6.4V34.4L60.4,34.4z M65.2,21.5v-1.9c0-1.1,0-1.9,0-2.4c0-0.5,0-1,0.1-1.4
	c0.3-0.1,0.6-0.1,0.8-0.2c0.3,0,0.6,0,1,0c1.6,0,2.9,0.5,3.9,1.6c1,1,1.5,2.4,1.5,4.1c0,1.9-0.5,3.4-1.4,4.3
	c-0.9,0.9-2.3,1.4-4.3,1.4c-0.4,0-0.8,0-1,0c-0.2,0-0.5,0-0.7,0V21.5L65.2,21.5z M65.9,28.3c0.2,0,0.4,0,0.6,0
	c2.5,0,4.4,0.6,5.7,1.7c1.3,1.2,1.9,2.9,1.9,5.3c0,2-0.5,3.5-1.4,4.6c-0.9,1.1-2.2,1.7-3.8,1.7c-1.4,0-2.4-0.4-2.9-1.2
	c-0.5-0.8-0.7-2.9-0.7-6.4v-5.7C65.4,28.3,65.6,28.3,65.9,28.3L65.9,28.3L65.9,28.3z M12.6,31.3c0.8-2.3,1.9-5.3,2.2-6.4
	c0.6-1.8,1.3-3.6,2-5.4c0.6,1.7,1.2,3.4,1.8,5.2c0.5,1.4,2.2,6.8,2.9,8.9C19.1,33,16.1,31.9,12.6,31.3L12.6,31.3L12.6,31.3z
	 M31.9,42.1c-1.7,0-3.7-3.4-6.1-10.3c-0.5-1.5-0.9-2.7-1.2-3.6l-5-14.3h-2.8l-5.3,14.2c-0.3,0.7-0.6,1.7-1.1,2.9
	C8,30.8,5.3,31,2.6,31.8c-0.8,0.3-1.6,0.8-2,1.3c2.9-1.2,6-1,9-0.3c-2.4,6.1-4.5,9.2-6.3,9.2H3.3l0,1c0.6,0,1.3-0.1,2.1-0.2
	c0.7-0.1,1.5-0.3,2.4-0.5c0.9,0.2,1.7,0.4,2.4,0.5c0.7,0.1,1.4,0.2,2,0.2v-1c-0.8,0-1.4-0.2-1.8-0.5c-0.3-0.3-0.5-0.7-0.5-1.3
	c0-0.4,0.2-1.2,0.5-2.4c0.3-1.2,0.7-2.5,1.2-3.9l0.2-0.6c3.5,0.9,6.9,2,10.1,1.7c0.4,1.2,0.7,2.2,0.9,3c0.3,1,0.4,1.7,0.4,2.1
	c0,0.5-0.2,0.9-0.6,1.2c-0.4,0.3-1,0.5-1.9,0.5v1c0.8,0,1.6-0.1,2.5-0.2c0.9-0.1,1.9-0.3,3.1-0.5c0.1,0,0.3,0,0.5,0.1
	c2.3,0.4,4,0.6,5.1,0.6L31.9,42.1L31.9,42.1L31.9,42.1L31.9,42.1z"/>
<path class="st2" d="M168.7,15.6c-3.3-2-6.9-2.4-10.7-1.3c-3.8,1.1-6.6,3.4-8.3,6.8c-1.7,3.4-2,7.2-0.8,11.3
	c1.2,4.1,3.4,7.1,6.7,9.1c3.3,2,6.9,2.4,10.7,1.3c3.8-1.1,6.6-3.4,8.3-6.8c1.7-3.4,2-7.2,0.8-11.3C174.2,20.6,172,17.5,168.7,15.6
	L168.7,15.6L168.7,15.6z M159.3,39.6c-2.1-1.9-3.7-4.9-4.9-8.8c-1.1-3.9-1.4-7.3-0.6-10c0.7-2.7,2.3-4.4,4.6-5.1
	c2.4-0.7,4.6-0.1,6.7,1.8c2.1,1.9,3.7,4.8,4.9,8.8c1.2,3.9,1.4,7.3,0.6,10c-0.7,2.7-2.3,4.5-4.7,5.2
	C163.6,42.1,161.4,41.5,159.3,39.6L159.3,39.6L159.3,39.6z M178.5,42.6c0.1-0.6,0.2-1.1,0.3-1.6c0.1-0.5,0.3-1,0.5-1.5
	c-0.2-1-0.3-1.8-0.3-2.6c-0.1-0.8-0.1-1.5-0.1-2.2c0-0.1,0-0.3,0-0.5c0-0.2,0-0.4,0-0.5h1.3c0.1,2.5,0.8,4.5,2,6
	c1.2,1.4,2.8,2.2,4.8,2.2c1.6,0,2.8-0.5,3.7-1.4c0.9-0.9,1.4-2.1,1.4-3.7c0-1.4-0.4-2.5-1.1-3.4c-0.8-0.9-2.3-1.9-4.6-3
	c-2.8-1.3-4.7-2.6-5.7-3.9c-1-1.3-1.5-2.8-1.5-4.7c0-2.4,0.8-4.4,2.4-5.9c1.6-1.5,3.7-2.3,6.3-2.3c0.9,0,2,0.1,3.1,0.4
	c1.2,0.2,1.9,0.4,2.1,0.4c0.2,0,0.4,0,0.6-0.1c0.1-0.1,0.3-0.2,0.3-0.4L195,14c-0.1,0.4-0.2,0.9-0.3,1.3c-0.1,0.4-0.3,0.8-0.4,1.2
	c0.1,0.7,0.2,1.3,0.2,1.9c0.1,0.6,0.1,1.2,0.1,1.8c0,0.1,0,0.3,0,0.6c0,0.3,0,0.5,0,0.6h-1.2c-0.1-2-0.7-3.5-1.6-4.6
	c-1-1.1-2.3-1.7-3.9-1.7c-1.4,0-2.6,0.4-3.4,1.3c-0.9,0.8-1.3,2-1.3,3.3c0,2.2,2.1,4.4,6.3,6.4c0.1,0,0.1,0.1,0.2,0.1
	c2.5,1.2,4.3,2.5,5.3,3.7c1,1.3,1.5,2.9,1.5,4.8c0,2.5-0.9,4.6-2.7,6.2c-1.8,1.6-4.1,2.4-6.9,2.4c-1.3,0-2.6-0.2-4-0.7
	c-1.4-0.5-2.2-0.7-2.4-0.7c-0.2,0-0.4,0.1-0.6,0.2c-0.1,0.1-0.3,0.3-0.4,0.6L178.5,42.6L178.5,42.6L178.5,42.6z M196.9,14.2
	c0.9,0.1,1.8,0.1,2.7,0.3c1,0.1,2,0.3,3,0.5c1.1-0.2,2.2-0.4,3.1-0.5c0.9-0.1,1.8-0.2,2.6-0.3l0,1c-1.3,0.1-2.2,0.6-2.6,1.5
	c-0.5,1-0.7,3.4-0.7,7.4v1.2c0,3.5,0.1,6.1,0.3,7.7c0.2,1.6,0.5,2.9,0.9,3.9c0.6,1.3,1.4,2.3,2.5,3c1.1,0.7,2.4,1,3.8,1
	c2.8,0,4.9-1,6.1-3.1c1.2-2.1,1.8-5.7,1.8-10.9v-4.3c0-3.1-0.2-5.1-0.7-6c-0.5-0.9-1.5-1.4-2.9-1.5v-1c0.7,0,1.4,0.1,2.2,0.2
	c0.8,0.1,1.6,0.3,2.5,0.4c0.7-0.2,1.4-0.3,2.2-0.4c0.7-0.1,1.5-0.2,2.2-0.3l0,1c-1.3,0.1-2.1,0.5-2.6,1.2c-0.4,0.8-0.7,2.7-0.7,5.7
	v5.7c0,5.5-0.9,9.4-2.7,11.9c-1.8,2.4-4.7,3.6-8.7,3.6c-2.2,0-4.1-0.4-5.6-1.1c-1.5-0.8-2.7-1.9-3.6-3.4c-0.6-1.1-1.1-2.4-1.3-3.9
	c-0.3-1.5-0.4-3.6-0.4-6.2v-6.2c0-3.2-0.2-5.2-0.7-6c-0.5-0.8-1.3-1.3-2.6-1.3V14.2L196.9,14.2z M186.1,48.8l0-0.4
	c0.1,0,0.1,0,0.2,0c0.1,0,0.1,0,0.2,0c0.3-0.1,0.5-0.2,0.7-0.4c0.2-0.2,0.3-0.5,0.3-0.8c-0.3,0-0.5,0-0.6-0.1
	c-0.2-0.1-0.3-0.2-0.4-0.4c0-0.1-0.1-0.1-0.1-0.2c0-0.1,0-0.1-0.1-0.2c0,0,0,0,0-0.1c0,0,0,0,0-0.1c0-0.2,0-0.4,0.1-0.6
	c0.1-0.2,0.3-0.4,0.5-0.5c0,0,0.1,0,0.1-0.1c0,0,0.1,0,0.1,0c0,0,0.1,0,0.1,0c0,0,0.1,0,0.1,0c0,0,0.1,0,0.2,0c0.1,0,0.1,0,0.2,0.1
	c0.2,0,0.3,0.1,0.4,0.2c0.1,0.1,0.2,0.3,0.3,0.5c0,0,0,0,0,0c0,0,0,0,0,0c0.1,0.6,0,1.3-0.3,1.9c-0.4,0.6-0.8,1-1.5,1.1
	c-0.1,0-0.2,0-0.3,0C186.3,48.8,186.2,48.8,186.1,48.8L186.1,48.8L186.1,48.8L186.1,48.8z M162.7,47.3c-3.3,0-7.1-1.1-9.5-2.6
	c-3.2-2.1-3.9-2.8-9-10.1c-2.4-3.3-4.2-5.3-5.9-6.2l0,0c1.4-0.6,2.5-1.4,3.3-2.6c0.9-1.2,1.3-2.7,1.3-4.3c0-2.4-0.8-4.3-2.4-5.5
	c-1.6-1.3-3.9-1.9-7-1.9c-1.1,0-2.3,0.1-3.4,0.2c-1.1,0.1-2.2,0.3-3.3,0.6c-1-0.2-1.9-0.4-2.8-0.5c-0.9-0.1-1.8-0.2-2.7-0.2l0,0.9
	c1.5,0.1,2.4,0.6,3,1.5c0.5,0.9,0.8,3.1,0.8,6.5v11.2c0,3.2-0.2,5.3-0.7,6.2c-0.5,0.9-1.4,1.3-2.8,1.4l0,1c0.8,0,1.6-0.1,2.5-0.2
	c0.9-0.1,2.1-0.3,3.4-0.6c1.1,0.2,2.2,0.4,3.2,0.5c1,0.1,1.9,0.2,2.7,0.3v-1c-1.4-0.1-2.3-0.6-2.8-1.5c-0.5-0.9-0.7-3.1-0.7-6.5
	V21.9c0-1.3,0-3.2,0.1-5.8v-0.2c0.1,0,0.1,0,0.2,0c0.7-0.1,1.2-0.1,1.6-0.1c1.9,0,3.3,0.6,4.3,1.8c1,1.2,1.5,3,1.5,5.2
	c0,1.9-0.5,3.4-1.4,4.5c-0.1,0.1-0.2,0.2-0.3,0.3c-1-0.2-2.8-0.3-5.3,0.4c0.8,0.4,1.3,0.6,1.8,0.9h-0.1c-0.1,0,0,0.1,0.4,0.2
	c0.2,0.2,0.4,0.3,0.6,0.5c1.7,1.6,2.5,2.5,6,7.6c3.5,5.1,5.9,7.5,9.5,9.5c3.3,1.8,7.1,2.8,11.1,2.8c6.5,0.1,12.8-2.5,13.5-5.5
	C170.6,46.2,166.9,47.4,162.7,47.3L162.7,47.3L162.7,47.3z"/>
<path class="st2" d="M102.6,30.4c-0.3,0.1-0.7,0.2-1,0.2c-0.8,0-1.6-0.3-2.2-0.8c-0.6-0.5-0.9-1.1-0.9-1.9c0-0.4,0.1-0.7,0.3-0.9
	c0.2-0.2,0.4-0.4,0.7-0.4c0.3,0,0.8,0.4,1.7,1.2c0.8,0.8,1.6,1.5,2.3,2C103.2,30.1,102.9,30.2,102.6,30.4L102.6,30.4L102.6,30.4z
	 M102.9,21.5c-0.1,0-0.1,0.1-0.2,0.1c0,0-0.2,0-0.5-0.1c-0.3-0.1-0.6-0.1-0.9-0.1c-0.8,0-1.4,0.2-1.9,0.7c-0.5,0.5-0.7,1.1-0.7,1.9
	c0,0.4,0.1,0.7,0.2,1.1c0.2,0.4,0.4,0.7,0.7,1c-0.7,0.1-1.3,0.5-1.7,0.9c-0.4,0.5-0.6,1.1-0.6,1.8c0,0.8,0.3,1.4,0.9,1.9
	c0.6,0.5,1.4,0.7,2.4,0.7c0.7,0,1.3-0.1,1.9-0.3c0.6-0.2,1.1-0.6,1.5-1c0.7,0.5,1.2,0.8,1.7,1c0.5,0.2,1,0.3,1.4,0.3
	c0.7,0.1,1.2-0.1,1.5-0.2c1.3-0.4,1.9-1,2.1-1.1c0,0-1.1,0.5-2.3,0.5c-0.4,0-1.3-0.2-1.8-0.5c-0.6-0.3-1.2-0.8-2-1.4
	c0.2-0.4,0.4-1,0.6-1.7c0.1-0.2,0.1-0.4,0.1-0.5c0.1-0.3,0.2-0.6,0.4-0.7c0.2-0.1,0.5-0.3,0.9-0.3v-0.3c-0.3,0-0.6,0-0.9,0.1
	c-0.3,0-0.7,0.1-1.1,0.2c-0.4-0.1-0.8-0.2-1.1-0.2c-0.3,0-0.6-0.1-0.9-0.1v0.3c0.6,0.1,1,0.3,1.3,0.6c0.3,0.3,0.4,0.7,0.4,1.3
	c0,0.2,0,0.4,0,0.6c0,0.2-0.1,0.4-0.1,0.5c-1.6-1.3-2.7-2.3-3.3-3.1c-0.6-0.8-0.9-1.5-0.9-2.1c0-0.5,0.1-0.8,0.4-1.1
	c0.2-0.3,0.6-0.4,0.9-0.4c0.4,0,0.8,0.2,1,0.5c0.3,0.3,0.4,0.8,0.5,1.5h0.4c0-0.1,0-0.2,0-0.3c0-0.1,0-0.2,0-0.3c0-0.2,0-0.4,0-0.8
	c0-0.1,0-0.1,0-0.2c0.1-0.1,0.1-0.3,0.2-0.4c0.1-0.1,0.1-0.3,0.1-0.4l-0.3-0.1C103,21.4,103,21.5,102.9,21.5L102.9,21.5L102.9,21.5z
	 M116.2,5.3c-5.6,2-10.8,5.6-12.7,10.4c-0.5,1.3-1.3,2.8-0.9,4.2c0.5,1.1,2.1,0.7,0.9-1.4c-0.1-0.2,0.2-0.6,0.5-1
	c0.4-0.5,0.8-1,0.3-2.8c0.3,0.3,0.5,0.6,0.8,0.9c0.1-0.8,0-1.8,0.3-2.4c0.2,0.2,0.3,0.4,0.5,0.7c0.3-0.3,0.7-0.6,1-1
	c0,0.1,0.1,0.2,0.1,0.4c0.4-0.3,0.9-0.5,1.3-0.8c0.6,1,0.9,1.3,1,2.6c0.4-0.3,0.9-0.6,1.3-1c-0.1,0.2-0.1,0.5-0.2,0.7
	c0.3-0.3,0.7-0.5,1-0.8c0,0.2,0,0.4,0.1,0.6c0.5-0.2,0.7-1,1.2-1.2c0,0.4-0.1,0.7-0.1,1.1c0.6,0,1.2,0.1,1.8,0.1
	c-0.1,0.3-0.3,0.6-0.4,0.9c0.5,0,1.1,0.1,1.6,0.1c0,0.3,0.1,0.7,0.1,1c0.5,0.1,1,0.1,1.5,0.2c0,0.3-0.7,0.5-0.7,0.8
	c0.6,0.4,1.5,0.8,1.6,1.5c-0.6,0.4-1.1,0.8-1.7,1.2c0.2,0.1,0.3,0.2,0.5,0.2c-0.1,0.3-0.3,0.6-0.4,0.9c-0.8,0.2-1.6,0.4-2.4,0.7
	c-0.1,0.3-0.2,0.5-0.3,0.8c0.2,0.2,0.4,0.5,0.7,0.7l3.2-0.4c0,0.2-0.1,0.3-0.1,0.4c0.5,0.1,0.9,0.1,1.4,0.2c0,0.2-0.1,0.3-0.1,0.5
	c0.4,0.4,1.2,0.8,1.4,1.3c-0.2,0.3-0.3,0.6-0.5,0.8c-0.4,0.1-0.8,0.2-1.2,0.3c0.4,0.4,0.8,0.7,1.3,1.1c-0.3,0.1-0.6,0.2-0.9,0.3
	c0.3,0.2,0.5,0.4,0.8,0.7c-0.1,0.1-0.2,0.1-0.3,0.2c0.4,0.3,0.7,0.7,1.1,1c-0.4,0.1-0.8,0.1-1.1,0.2c0.4,0.8,0.8,1.7,1.1,2.5
	c-0.4,0.1-0.8,0.1-1.1,0.2c0.2,0.5,0.3,0.9,0.5,1.4c-0.2,0-0.4,0-0.6,0c0.2,1.1,0.4,2.1,0.5,3.2c-1.2-0.5-2.5-0.9-3.7-1.4
	c0,0.3,0,0.5-0.1,0.8c-0.7-0.6-1.4-1.2-2.1-1.8c0,0.3-0.1,0.6-0.1,0.9c-0.6-1.3-1.1-2.3-2.1-3.3c-0.8-0.9-1-1-2.2-1.2
	c-1.4,1.9,1.1,2.8,2.6,3.5c0,0.1,0.1,0.3,0.1,0.4c-0.1,0.2-0.3,0.4-0.4,0.5c0.7,0.7,1.5,1.1,1.6,2.1c-0.2,0-0.3,0-0.5,0
	c0.2,0.4,0.3,0.8,0.5,1.3c-0.3,0-0.5-0.1-0.8-0.1c0.1,0.6,0.2,1.3,0.3,1.9c-0.9-0.3-1.8-0.5-2.8-0.8c0.1,0.5,0.3,1,0.4,1.5
	c-0.3-0.2-0.6-0.4-1-0.6c0.1,0.5,0.3,1,0.4,1.5c-0.1,0-0.2-0.1-0.4-0.1c0,0.3,0,0.6,0,0.9c-0.4-0.3-0.7-0.6-1.1-1c0,0.5,0,1,0,1.5
	c-0.3-0.1-0.6-0.2-0.9-0.3c0.1,0.7,0.1,1.3,0.2,2c-0.4-0.2-0.9-0.4-1.3-0.6c-0.1,0.8-0.2,1.6-0.2,2.4c-0.5-0.4-1-0.7-1.5-1.1
	c0.1,0.8,0.1,1.3-0.2,2c-0.2-0.1-0.4-0.2-0.6-0.3c-0.2,0.6-0.4,1.2-0.6,1.8c-0.2,0.3-1.1,1.3-1.4,1.1c-1.1-1.2-1.2-1.4-1.7-2.9
	c-0.2,0.1-0.4,0.2-0.6,0.3c-0.3-0.8-0.3-1.2-0.2-2c-0.5,0.4-1,0.7-1.5,1.1c-0.1-0.8-0.2-1.6-0.2-2.4c-0.4,0.2-0.9,0.4-1.3,0.6
	c0.1-0.7,0.1-1.3,0.2-2c-0.3,0.1-0.6,0.2-0.9,0.3c0-0.5,0-1,0-1.5c-0.4,0.3-0.7,0.6-1.1,1c0-0.3,0-0.6,0-0.9c-0.1,0-0.2,0.1-0.3,0.1
	c0.1-0.5,0.3-1,0.4-1.5c-0.3,0.2-0.7,0.4-1,0.6c0.1-0.5,0.3-1,0.4-1.5c-0.9,0.3-1.8,0.5-2.8,0.8c0.1-0.6,0.2-1.3,0.3-1.9
	c-0.3,0-0.5,0.1-0.8,0.1c0.2-0.4,0.3-0.8,0.5-1.3c-0.2,0-0.3,0-0.5,0c0.1-1,0.8-1.4,1.6-2.1c-0.1-0.2-0.3-0.4-0.4-0.5
	c0-0.1,0.1-0.3,0.1-0.4c1.5-0.7,4-1.6,2.6-3.5c-0.4,0.1-0.7,0.1-1.1,0.2c-1.2,0.6-2.6,3.2-3.2,4.4c0-0.3-0.1-0.6-0.1-0.9
	c-0.7,0.6-1.4,1.2-2.1,1.8c0-0.3,0-0.5-0.1-0.8c-1.2,0.4-2.5,0.9-3.7,1.4c0.2-1.1,0.4-2.1,0.5-3.2c-0.2,0-0.4,0-0.6,0
	c0.1-0.5,0.3-0.9,0.5-1.4C84.3,33.1,84,33,83.6,33c0.4-0.8,0.8-1.7,1.1-2.5c-0.4-0.1-0.8-0.1-1.1-0.2c0.4-0.3,0.7-0.7,1.1-1
	c-0.1-0.1-0.2-0.1-0.3-0.2c0.3-0.2,0.5-0.5,0.8-0.7c-0.3-0.1-0.6-0.2-0.9-0.3c0.4-0.4,0.8-0.7,1.2-1.1c-0.4-0.1-0.8-0.2-1.2-0.3
	c-0.2-0.3-0.3-0.6-0.5-0.8c0.2-0.5,1-1,1.4-1.3c0-0.2-0.1-0.3-0.1-0.5c0.5-0.1,0.9-0.1,1.4-0.2c0-0.1-0.1-0.3-0.1-0.4l3.2,0.4
	c0.2-0.2,0.4-0.5,0.7-0.7c-0.1-0.3-0.2-0.5-0.3-0.8c-0.8-0.3-1.6-0.5-2.4-0.7c-0.1-0.3-0.3-0.6-0.4-0.9c0.2-0.1,0.3-0.2,0.5-0.2
	c-0.6-0.4-1.2-0.8-1.7-1.2c0.1-0.7,1-1.1,1.6-1.5c0-0.3,0-0.6,0-0.9c0.5-0.1,1-0.1,1.5-0.2c0-0.3,0-0.7,0.1-1c0.5,0,1.1-0.1,1.6-0.1
	c-0.1-0.3-0.3-0.6-0.4-0.9c0.6,0,1.2-0.1,1.8-0.1c0-0.4-0.1-0.7-0.1-1.1c0.5,0.2,1,0.4,1.5,0.6c0-0.2,0-0.4,0.1-0.6
	c0.3,0.3,0.7,0.5,1,0.8c-0.1-0.2-0.1-0.5-0.2-0.7c0.4,0.3,0.9,0.7,1.3,1c0.1-1.2-0.1-2,1-2.6c0.4,0.3,0.9,0.5,1.3,0.8
	c0-0.1,0-0.2,0.1-0.4c0.3,0.3,0.7,0.6,1,1c0.2-0.2,0.3-0.4,0.5-0.7c0.4,0.7,0.2,1.7,0.3,2.4c0.3-0.3,0.6-0.6,0.9-0.9
	c-0.6,2.1,0.1,2.7-0.4,3.5c-0.1,0.3-0.4,0.6-0.5,0.8c-0.5,1.8,0.8,2.3,1.4-0.2c0.1-0.5,0.3-1.1,0.4-1.6c0.8-2.6,2.4-5.5,5.8-8.4
	c2.6-2.2,5.2-3.7,7.7-4.7c0.4-0.2,0.9-0.3,1.3-0.5V5.3L116.2,5.3z"/>
</svg>
