<?xml version="1.0" encoding="utf-8"?>
<!-- Generator: Adobe Illustrator 24.0.1, SVG Export Plug-In . SVG Version: 6.00 Build 0)  -->
<!DOCTYPE svg PUBLIC "-//W3C//DTD SVG 1.1//EN" "http://www.w3.org/Graphics/SVG/1.1/DTD/svg11.dtd" [
	<!ENTITY ns_extend "http://ns.adobe.com/Extensibility/1.0/">
	<!ENTITY ns_ai "http://ns.adobe.com/AdobeIllustrator/10.0/">
	<!ENTITY ns_graphs "http://ns.adobe.com/Graphs/1.0/">
	<!ENTITY ns_vars "http://ns.adobe.com/Variables/1.0/">
	<!ENTITY ns_imrep "http://ns.adobe.com/ImageReplacement/1.0/">
	<!ENTITY ns_sfw "http://ns.adobe.com/SaveForWeb/1.0/">
	<!ENTITY ns_custom "http://ns.adobe.com/GenericCustomNamespace/1.0/">
	<!ENTITY ns_adobe_xpath "http://ns.adobe.com/XPath/1.0/">
]>
<svg version="1.1" id="Layer_1" xmlns:x="&ns_extend;" xmlns:i="&ns_ai;" xmlns:graph="&ns_graphs;"
	 xmlns="http://www.w3.org/2000/svg" xmlns:xlink="http://www.w3.org/1999/xlink" x="0px" y="0px" viewBox="0 0 500 500"
	 style="enable-background:new 0 0 500 500;" xml:space="preserve">
<style type="text/css">
	.st0{fill:#F96908;}
	.st1{fill:#FFFFFF;}
	.st2{fill:#117500;}
	.st3{fill:#6B051D;}
	.st4{fill:#FC0606;}
	.st5{fill-rule:evenodd;clip-rule:evenodd;fill:#FFFFFF;}
	.st6{fill:#FFCE00;}
	.st7{fill:#1C1C1B;}
	.st8{fill:#8800FF;}
</style>
<metadata>
	<sfw  xmlns="&ns_sfw;">
		<slices></slices>
		<sliceSourceBounds  bottomLeftOrigin="true" height="1426.8" width="1431.9" x="64.1" y="-1480.8"></sliceSourceBounds>
	</sfw>
</metadata>
<g>
	<path class="st4" d="M281.1,70.3l21,19.6c0.2,0.2,0.6,0.6,0.8,0.6h0.2c0.2,0,0.6,0,0.8,0l28-6.5c7.8-1.8,15.9-0.3,22.2,3.4h0.2l0,0
		c6.4,3.8,11.6,9.9,14,17.7l8.4,27.6c0.2,0.2,0.4,0.5,0.4,0.7h0.2l0,0c0.2,0.2,0.4,0.4,0.6,0.4h0.1l27.4,8.6l0,0
		c7.8,2.5,14.1,7.6,17.7,14.1c3.8,6.5,5.3,14.4,3.4,22.3l-6.3,28c-0.1,0.4-0.1,0.7-0.1,1c0.1,0.2,0.3,0.5,0.5,0.6l0.7,1l18.7,20.2
		l0,0c5.6,5.9,8.4,13.6,8.4,21c0,7.8-2.9,15.3-8.4,21.3l-0.6,0.6l-18.8,20.1v0.4l0,0c-0.2,0.2-0.4,0.4-0.5,0.7v0.1
		c0,0.3,0,0.5,0.1,0.9l6.3,27.9c1.9,8,0.4,15.9-3.4,22.5c-3.8,6.5-10,11.5-17.7,14l-0.5,0.2l-26.9,8.4c-0.3,0-0.5,0.1-0.7,0.3
		c-0.2,0.2-0.4,0.6-0.6,0.9l-8.4,27.2c-2.4,8-7.6,14.1-14,17.9c-6.6,3.8-14.6,5.4-22.5,3.4l-28-6.5h-0.1c-0.3,0-0.7,0-0.9,0
		s-0.4,0.2-0.8,0.6l-0.8,0.7l-20.2,18.6l0,0c-6.1,5.8-13.6,8.4-21.2,8.4s-15.1-2.7-21-8.4l-0.8-0.8l-20.2-18.5h-0.1l0,0
		c-0.3-0.4-0.5-0.6-0.7-0.6h-0.2c-0.2,0-0.4,0-0.8,0l-28.1,6.5c-7.7,2-15.8,0.4-22.3-3.4l-1-0.6c-6.1-3.7-10.8-9.9-13.1-17.3
		l-8.3-27.2c-0.2-0.3-0.4-0.7-0.6-0.9l-0.2-0.2l-0.6-0.1l-27.4-8.7h-0.1c-7.7-2.5-13.9-7.5-17.7-14l-0.5-1.2
		c-3.3-6.2-4.5-13.8-2.7-21.2l6.2-27.9c0.1-0.4,0.1-0.8,0-1c0-0.3-0.2-0.5-0.4-0.7l-0.8-1l-18.6-20.1c-5.6-6.1-8.3-13.5-8.3-21.3
		c0-7.4,2.8-15.1,8.3-21l0.7-0.6L99,208.7l0,0v-0.2c0.2-0.1,0.4-0.4,0.4-0.5l0.1-0.2h-0.1c0.1-0.2,0.1-0.5,0-0.7l-0.1-1l-6.1-27.2
		c-2-7.9-0.4-15.8,3.2-22.3h0.1h-0.1c3.8-6.5,10-11.6,17.7-14.1l0.7-0.2l26.8-8.3c0.4,0,0.6-0.2,0.8-0.4l0.2-0.3l0.4-0.4l8.3-27.6
		v-0.2c2.4-7.6,7.5-13.7,14.1-17.5l1.2-0.6c6.3-3.3,13.7-4.4,21.1-2.8l28.1,6.5c0.4,0,0.6,0,1,0c0.2,0,0.4-0.4,0.7-0.6l0.9-0.7
		l20.2-18.8c5.9-5.5,13.4-8.2,21-8.2S275,64.8,281.1,70.3L281.1,70.3z"/>
	<path class="st1" d="M190.5,213.5L190.5,213.5c0-4.7,3.9-8.5,8.9-8.5c4.7,0,8.5,3.8,8.5,8.5V288c0,4.7-3.8,8.8-8.5,8.8
		c-3.5,0-6.5-2-7.8-4.7l-29.5-47.7V288c0,4.7-3.9,8.8-8.8,8.8c-4.7,0-8.6-4-8.6-8.8v-74.6c0-4.7,3.8-8.5,8.6-8.5
		c3.4,0,6.5,2.2,7.8,4.8l29.4,47.7V213.5L190.5,213.5z"/>
	<path class="st4" d="M191.5,292.1L191.5,292.1c-0.7-1.1-1-2.5-1-4L191.5,292.1L191.5,292.1z"/>
	<path class="st4" d="M161.1,209.8L161.1,209.8c0.7,1.1,0.9,2.5,0.9,3.7L161.1,209.8L161.1,209.8z"/>
	<path class="st1" d="M275.4,279.4L275.4,279.4c4.6,0,8.6,3.9,8.6,8.6c0,4.7-4,8.8-8.6,8.8h-45.9c-4.7,0-8.6-4-8.6-8.8v-0.2
		c0-24.7,0-49.6,0-74.4c0-4.7,3.9-8.5,8.6-8.5h0.2h45.7c4.6,0,8.6,3.8,8.6,8.5c0,4.9-4,9-8.6,9h-37.1v19.7h14c4.8,0,8.9,3.9,8.9,8.6
		c0,4.9-4,8.8-8.9,8.8h-14v19.9H275.4L275.4,279.4z"/>
	<path class="st1" d="M326,290.1L326,290.1c-0.8,3.3-3.3,5.8-6.7,6.5c-4.6,0.9-9.2-2.1-10.3-6.6l-16.2-74.6
		c-1.1-4.5,1.9-9.4,6.5-10.3c4.7-0.9,9.4,2.2,10.4,6.7l9.6,43.6l6.3-19.1l0,0l0.2-0.6l0.2-0.2v-0.1l0.3-0.6l0.1-0.2
		c3.7-5.5,11.3-5.5,14.8,0l0.2,0.2l0.3,0.6v0.1l0.3,0.2v0.6l0,0l6.4,19.1l9.7-43.6c0.9-4.5,5.6-7.6,10.2-6.7
		c4.7,0.9,7.7,5.8,6.7,10.3L358.7,290c-0.9,4.5-5.7,7.5-10.3,6.6c-3.2-0.7-5.9-3.2-6.6-6.5l-7.9-23.5L326,290.1L326,290.1z"/>
</g>
</svg>
