<?xml version="1.0" encoding="utf-8"?>
<!-- Generator: Adobe Illustrator 24.0.1, SVG Export Plug-In . SVG Version: 6.00 Build 0)  -->
<!DOCTYPE svg PUBLIC "-//W3C//DTD SVG 1.1//EN" "http://www.w3.org/Graphics/SVG/1.1/DTD/svg11.dtd" [
	<!ENTITY ns_extend "http://ns.adobe.com/Extensibility/1.0/">
	<!ENTITY ns_ai "http://ns.adobe.com/AdobeIllustrator/10.0/">
	<!ENTITY ns_graphs "http://ns.adobe.com/Graphs/1.0/">
	<!ENTITY ns_vars "http://ns.adobe.com/Variables/1.0/">
	<!ENTITY ns_imrep "http://ns.adobe.com/ImageReplacement/1.0/">
	<!ENTITY ns_sfw "http://ns.adobe.com/SaveForWeb/1.0/">
	<!ENTITY ns_custom "http://ns.adobe.com/GenericCustomNamespace/1.0/">
	<!ENTITY ns_adobe_xpath "http://ns.adobe.com/XPath/1.0/">
]>
<svg version="1.1" id="Layer_1" xmlns:x="&ns_extend;" xmlns:i="&ns_ai;" xmlns:graph="&ns_graphs;"
	 xmlns="http://www.w3.org/2000/svg" xmlns:xlink="http://www.w3.org/1999/xlink" x="0px" y="0px" viewBox="0 0 500 500"
	 style="enable-background:new 0 0 500 500;" xml:space="preserve">
<style type="text/css">
	.st0{fill:#F96908;}
	.st1{fill:#FFFFFF;}
	.st2{fill:#117500;}
	.st3{fill:#6B051D;}
	.st4{fill:#FC0606;}
	.st5{fill-rule:evenodd;clip-rule:evenodd;fill:#FFFFFF;}
	.st6{fill:#FFCE00;}
	.st7{fill:#1C1C1B;}
	.st8{fill:#8800FF;}
</style>
<metadata>
	<sfw  xmlns="&ns_sfw;">
		<slices></slices>
		<sliceSourceBounds  bottomLeftOrigin="true" height="1426.8" width="1431.9" x="64.1" y="-1480.8"></sliceSourceBounds>
	</sfw>
</metadata>
<g>
	<circle class="st2" cx="249.4" cy="250" r="195.9"/>
	<path class="st1" d="M338.7,342.4c-7,2.7-14,5.1-21.1,7.1c-8,2.4-16,4.3-23.8,5.7c-22.9,3.9-44.4,3.8-63.5-0.3
		c-23.7-4.9-43.8-15.4-59.2-30.7c-15.6-15.3-26.2-35.4-30.3-59.3c-3.2-17.5-2.8-37.1,1.6-58.4c1.6-8.1,5.7-22,10-36.1
		c4.6-14.9,9.8-30.1,13.1-38.3c1.9-4.5,7.1-6.8,11.7-4.9c2.8,1.1,4.7,3.5,5.2,6.2c2.2,8.6,7,15.5,13.2,21.3
		c6.6,6.4,15.3,11.9,24.1,17.2c25.6,15.3,53.4,36.6,76.5,61.3c19.6,21,36.1,44.6,45.2,69.3c1.8,4.8,3.2,9.7,4.2,14.8
		c0.4,2.8,0.8,5.4,1.1,8.3c5.1,1,12.6,2.3,21.7,3.3c4.9,0.6,8.3,4.9,7.8,9.9c-0.4,4.9-4.9,8.3-9.8,7.8
		C352.9,345.3,343,343.3,338.7,342.4L338.7,342.4z M199.2,242.5L199.2,242.5c-2.9,0.8-5.7,1.5-8.8,2.3l-6.1,1.4l-6.1,1.4
		c-2.9,0.6-5.7-1.3-6.4-4.1c-0.5-2.9,1.3-5.7,4.2-6.4l5.8-1.3l0.1-0.1l6.2-1.4l5.7-1.3c-4-7.6-7.6-15.5-11.1-23.6
		c-1.1-2.7,0.1-5.8,2.8-7c2.8-1.1,5.9,0.1,7.1,2.8c3.3,7.8,6.8,15.4,10.7,22.7c3.8,7.2,8,14.1,12.7,20.4l1,1.3l1.1-2.9v-0.1
		l4.5-11.9c1-2.8,4.1-4,6.9-3.1c2.7,1.1,4.1,4.2,3,6.9l-4.5,12l-3.2,8.6c2.1,2.5,4.4,4.9,6.6,7.1c5.4,5.6,11.4,11.1,17.4,16.5
		c2.5,1.9,4.9,3.7,7.6,5.7l1.6-5.7l0.1-0.4l1.9-6.2h0.1h-0.1l2.2-6.7c0.8-2.9,3.7-4.4,6.6-3.5c2.8,0.8,4.4,3.8,3.5,6.6l-2.1,6.8
		l-1.8,6.2l-0.1,0.3l-2.8,9.2l2.9,1.9c14.4,9.8,28.4,17,44.8,22.9c5.2,1.9,10.4,3.5,15.8,5.2c-0.8-5.6-2.2-11-4.2-16.3
		c-8.2-22.4-23.2-44-41.3-63.3c-22-23.4-48.4-43.5-72.7-58.2c-9.9-5.8-19.4-11.9-27.3-19.5c-3-2.8-5.8-5.9-8.4-9.3
		c-1.8,5.5-3.7,11.4-5.5,17.4c-4.3,13.6-8.1,27.1-9.7,34.3c-3.8,19-4.3,36.4-1.5,51.8c3.5,20.2,12.3,37.1,25.3,49.8
		c12.8,12.9,30.1,21.7,50.2,25.9c17.1,3.5,36.2,3.7,57,0.1c7.3-1.3,14.6-3,21.8-5.2l2.3-0.7l-5.4-1.8c-8-2.8-15.9-6.1-23.2-9.7
		c-9.1,3.2-18.2,6.4-27.3,9.5c-2.9,1-5.9-0.5-6.9-3.3c-0.8-2.8,0.6-5.9,3.3-6.8c6.2-2.1,12.2-4.2,18.3-6.3c-4-2.4-8-4.9-11.6-7.4
		c-9.6-6.4-18.9-13.2-27.3-21.2c-14.8,4.3-29.7,8.7-44.6,12.8c-2.7,0.8-5.6-0.9-6.5-3.7c-0.8-2.8,0.9-5.7,3.8-6.5
		c12.8-3.5,25.6-7.3,38.5-11l-2.5-2.6c-2.9-3-5.6-6.1-8.4-9.2c-0.6-0.4-1-0.9-1.3-1.5c-2.3-2.7-4.5-5.5-6.6-8.5
		C204.4,250.8,201.8,246.7,199.2,242.5L199.2,242.5z"/>
</g>
</svg>
