<?xml version="1.0" encoding="utf-8"?>
<!-- Generator: Adobe Illustrator 24.0.1, SVG Export Plug-In . SVG Version: 6.00 Build 0)  -->
<!DOCTYPE svg PUBLIC "-//W3C//DTD SVG 1.1//EN" "http://www.w3.org/Graphics/SVG/1.1/DTD/svg11.dtd" [
	<!ENTITY ns_extend "http://ns.adobe.com/Extensibility/1.0/">
	<!ENTITY ns_ai "http://ns.adobe.com/AdobeIllustrator/10.0/">
	<!ENTITY ns_graphs "http://ns.adobe.com/Graphs/1.0/">
	<!ENTITY ns_vars "http://ns.adobe.com/Variables/1.0/">
	<!ENTITY ns_imrep "http://ns.adobe.com/ImageReplacement/1.0/">
	<!ENTITY ns_sfw "http://ns.adobe.com/SaveForWeb/1.0/">
	<!ENTITY ns_custom "http://ns.adobe.com/GenericCustomNamespace/1.0/">
	<!ENTITY ns_adobe_xpath "http://ns.adobe.com/XPath/1.0/">
]>
<svg version="1.1" id="Layer_1" xmlns:x="&ns_extend;" xmlns:i="&ns_ai;" xmlns:graph="&ns_graphs;"
	 xmlns="http://www.w3.org/2000/svg" xmlns:xlink="http://www.w3.org/1999/xlink" x="0px" y="0px" viewBox="0 0 500 500"
	 style="enable-background:new 0 0 500 500;" xml:space="preserve">
<style type="text/css">
	.st0{fill:#F96908;}
	.st1{fill:#FFFFFF;}
	.st2{fill:#117500;}
	.st3{fill:#6B051D;}
	.st4{fill:#FC0606;}
	.st5{fill-rule:evenodd;clip-rule:evenodd;fill:#FFFFFF;}
	.st6{fill:#FFCE00;}
	.st7{fill:#1C1C1B;}
	.st8{fill:#8800FF;}
</style>
<metadata>
	<sfw  xmlns="&ns_sfw;">
		<slices></slices>
		<sliceSourceBounds  bottomLeftOrigin="true" height="1426.8" width="1431.9" x="64.1" y="-1480.8"></sliceSourceBounds>
	</sfw>
</metadata>
<g>
	<circle class="st3" cx="260.1" cy="250" r="195.9"/>
	<path class="st1" d="M174.4,175.5v29.8h81.7v-29.8C228.8,175.5,201.5,175.5,174.4,175.5L174.4,175.5z M275.9,175.9L275.9,175.9H333
		v-35.4h-96.9v15.2H266c5.5,0,9.9,4.5,9.9,9.9v0.2V175.9L275.9,175.9z M333,187.8L333,187.8h-57.1V247c0,3.1-0.2,6.1-0.6,9.1
		l0.3,0.1c15.6,2.8,31.9-2.4,43.1-13.5c8.8-8.7,14.3-21,14.3-34.2V187.8L333,187.8z M174.4,217.3L174.4,217.3V247
		c0,11.3,4.5,21.5,12,28.9c16,16,41.8,16,57.8,0c7.4-7.4,12-17.6,12-28.9v-29.7H174.4L174.4,217.3z M216.3,155.7L216.3,155.7v-25.1
		c0-5.5,4.4-9.9,9.9-9.9h0.3h116.4c5.5,0,10,4.4,10,9.9v0.2v77.8c0,18.9-7.7,35.9-20.1,48.2l0,0l-0.1,0.1
		c-10.1,10.1-23.4,17-38.1,19.2v82.6h48.4c5.5,0,10,4.4,10,9.9c0,5.6-4.5,9.9-10,9.9h-58.1h-0.3h-0.2h-18.1H266h-39.8H226h-10.6
		h-0.3H215h-50.7c-5.5,0-9.9-4.4-9.9-9.9c0-5.5,4.4-9.9,9.9-9.9h40.9V307c-12.7-2.2-24.1-8.3-33-17c-11-11-17.8-26.2-17.8-42.9
		v-81.4c0-5.4,4.4-9.9,9.9-9.9h0.2H216.3L216.3,155.7z M225.2,307L225.2,307v51.8h0.8h0.2H266h0.2h8.4v-82.6l-2.7-0.5
		c-0.9-0.2-1.8-0.3-2.8-0.6c-3,5.5-6.7,10.5-11,14.9C249.3,298.7,237.8,304.7,225.2,307L225.2,307z"/>
</g>
</svg>
