<?xml version="1.0" encoding="utf-8"?>
<!-- Generator: Adobe Illustrator 24.0.1, SVG Export Plug-In . SVG Version: 6.00 Build 0)  -->
<!DOCTYPE svg PUBLIC "-//W3C//DTD SVG 1.1//EN" "http://www.w3.org/Graphics/SVG/1.1/DTD/svg11.dtd" [
	<!ENTITY ns_extend "http://ns.adobe.com/Extensibility/1.0/">
	<!ENTITY ns_ai "http://ns.adobe.com/AdobeIllustrator/10.0/">
	<!ENTITY ns_graphs "http://ns.adobe.com/Graphs/1.0/">
	<!ENTITY ns_vars "http://ns.adobe.com/Variables/1.0/">
	<!ENTITY ns_imrep "http://ns.adobe.com/ImageReplacement/1.0/">
	<!ENTITY ns_sfw "http://ns.adobe.com/SaveForWeb/1.0/">
	<!ENTITY ns_custom "http://ns.adobe.com/GenericCustomNamespace/1.0/">
	<!ENTITY ns_adobe_xpath "http://ns.adobe.com/XPath/1.0/">
]>
<svg version="1.1" id="Layer_1" xmlns:x="&ns_extend;" xmlns:i="&ns_ai;" xmlns:graph="&ns_graphs;"
	 xmlns="http://www.w3.org/2000/svg" xmlns:xlink="http://www.w3.org/1999/xlink" x="0px" y="0px" viewBox="0 0 500 500"
	 style="enable-background:new 0 0 500 500;" xml:space="preserve">
<style type="text/css">
	.st0{fill:#F96908;}
	.st1{fill:#FFFFFF;}
	.st2{fill:#117500;}
	.st3{fill:#6B051D;}
	.st4{fill:#FC0606;}
	.st5{fill-rule:evenodd;clip-rule:evenodd;fill:#FFFFFF;}
	.st6{fill:#FFCE00;}
	.st7{fill:#1C1C1B;}
	.st8{fill:#8800FF;}
</style>
<metadata>
	<sfw  xmlns="&ns_sfw;">
		<slices></slices>
		<sliceSourceBounds  bottomLeftOrigin="true" height="1426.8" width="1431.9" x="64.1" y="-1480.8"></sliceSourceBounds>
	</sfw>
</metadata>
<g>
	<circle class="st0" cx="260" cy="250" r="195.9"/>
	<path class="st1" d="M255.1,359.7c-34.5-3.3-59-16.9-75-29.9c16.1,3.9,32.2,5.6,49.6,4c29.7-2.6,62.4-14.9,103.8-42.2
		c20.2-13.4,45.1,14,32.3,33.3c-8.4,12.7-23.6,21.5-41,27.1C301.4,359.7,274.6,361.4,255.1,359.7L255.1,359.7z M380.7,288.3
		L380.7,288.3c4.9-5.9,10.1-15.3,11.6-29.8c0.3-5.4-3.5-10.1-8.9-10.5c-5.4-0.6-10.1,3.5-10.6,8.8c-0.8,8.9-3.5,14.7-5.9,18.1
		c-3.3-2.1-6.9-3.7-10.7-4.8c-10.4-3.2-22.2-2.1-33.5,5.3c-38.6,25.4-68.3,36.8-94.7,39.2c-26.2,2.3-49.8-4.2-76.3-14.3v0.1
		c-2.7-1.1-5.9-0.8-8.7,0.8c-4.6,2.8-5.9,8.9-3,13.4c0.1,0.1,33.7,57,113.3,64.4c21.7,2.1,51.5,0,77.5-8.4
		c21.1-6.9,40-18.1,51.2-34.9C391.9,320.8,390.4,302.4,380.7,288.3L380.7,288.3z M190.6,172.1L190.6,172.1
		c16.4,34.2,33.2,55,51.8,68.5c7.7,5.6,15.7,9.9,24.1,13.3c-13.5,0.3-30.1-1.9-48.2-10.4c-22.5-10.7-55.9-35.6-57.1-63.3
		c-0.1-4.4,1.8-8.2,4.7-10.9C173.1,162.7,185.8,162.2,190.6,172.1L190.6,172.1z M179.7,145L179.7,145c0.1-2.8,0.8-6.2,2.9-10.7
		c2.3-4.8,0.3-10.6-4.6-12.9c-4.8-2.3-10.7-0.3-12.9,4.6c-4.6,9.5-5.2,17.6-4.6,23.5c-2.7,1.5-5.4,3.3-7.7,5.3
		c-7.1,6.4-11.6,15.5-11.1,26.4l0,0c1.7,35.5,38.8,66,68.2,79.9c55.6,26.4,100.6,1.8,100.7,1.7c8.3-4.3,5.9-16.6-3-18l0,0
		c-20.7-3.7-38.3-8.6-53.9-19.8c-15.9-11.6-30.7-30.2-45.8-61.2c-4.7-9.9-12.6-15.6-21.3-17.7C184.4,145.4,182,145.1,179.7,145
		L179.7,145z"/>
</g>
</svg>
