<?xml version="1.0" encoding="utf-8"?>
<!-- Generator: Adobe Illustrator 24.0.1, SVG Export Plug-In . SVG Version: 6.00 Build 0)  -->
<!DOCTYPE svg PUBLIC "-//W3C//DTD SVG 1.1//EN" "http://www.w3.org/Graphics/SVG/1.1/DTD/svg11.dtd" [
	<!ENTITY ns_extend "http://ns.adobe.com/Extensibility/1.0/">
	<!ENTITY ns_ai "http://ns.adobe.com/AdobeIllustrator/10.0/">
	<!ENTITY ns_graphs "http://ns.adobe.com/Graphs/1.0/">
	<!ENTITY ns_vars "http://ns.adobe.com/Variables/1.0/">
	<!ENTITY ns_imrep "http://ns.adobe.com/ImageReplacement/1.0/">
	<!ENTITY ns_sfw "http://ns.adobe.com/SaveForWeb/1.0/">
	<!ENTITY ns_custom "http://ns.adobe.com/GenericCustomNamespace/1.0/">
	<!ENTITY ns_adobe_xpath "http://ns.adobe.com/XPath/1.0/">
]>
<svg version="1.1" id="Layer_1" xmlns:x="&ns_extend;" xmlns:i="&ns_ai;" xmlns:graph="&ns_graphs;"
	 xmlns="http://www.w3.org/2000/svg" xmlns:xlink="http://www.w3.org/1999/xlink" x="0px" y="0px" viewBox="0 0 500 500"
	 style="enable-background:new 0 0 500 500;" xml:space="preserve">
<style type="text/css">
	.st0{fill:#F96908;}
	.st1{fill:#FFFFFF;}
	.st2{fill:#117500;}
	.st3{fill:#6B051D;}
	.st4{fill:#FC0606;}
	.st5{fill-rule:evenodd;clip-rule:evenodd;fill:#FFFFFF;}
	.st6{fill:#FFCE00;}
	.st7{fill:#1C1C1B;}
	.st8{fill:#8800FF;}
</style>
<metadata>
	<sfw  xmlns="&ns_sfw;">
		<slices></slices>
		<sliceSourceBounds  bottomLeftOrigin="true" height="1426.8" width="1431.9" x="64.1" y="-1480.8"></sliceSourceBounds>
	</sfw>
</metadata>
<g>
	<g>
		<circle class="st8" cx="264.8" cy="244.9" r="195.9"/>
	</g>
	<path class="st1" d="M170.7,231.9c-5.2,0-9.4-4.2-9.4-9.4c0-5.2,4.2-9.5,9.4-9.5h32.6c27.2,0,46.3-36.6,46.3-60.3
		c0-3.6-0.4-7.2-1.2-10.2c-2-7.6-1.1-14.5,1.7-20l0.3-0.5c2.3-4.5,5.9-8,10.1-10.3c4.2-2.3,9.2-3.6,14.3-3.4
		c6.8,0.1,13.9,2.8,19.9,8.6c14.4,13.6,11.7,35.4,9.2,54.3c-0.6,4.8-1.2,9.5-1.3,13.6c-0.8,13.7,2.5,16.8,16.1,16.8H347
		c22.4,0,33.5,25.7,20.9,42.3l-0.3,0.4l0.3,0.3l0.4,0.4c8.2,11.3,6.2,27.2-4.8,36.1c6.7,13.1,1.3,29.7-12.6,36.1
		c5.8,16.3-6.4,35.1-24.9,35.1v-0.1l-60.9-0.1h-0.1h-0.2c-5.5-0.1-11.1-0.3-16.5-1.1c-5.6-0.7-11.1-1.8-16.2-3.5
		c-8.3-2.5-13.9-4.8-18.8-6.6c-11.3-4.5-18.9-7.5-42.5-7.5c-5.2,0-9.4-4.2-9.4-9.5c0-5.2,4.2-9.5,9.4-9.5c27.2,0,36.1,3.6,49.5,8.9
		c5,1.9,10.5,4.1,17.3,6.2c4.2,1.3,8.6,2.2,13.1,2.8c4.7,0.5,9.5,0.9,14.4,0.9h0.1h0.2l60.7,0.1c7.9,0,10.4-11.1,3.1-14.3
		c-3.7-1.2-6.4-4.8-6.4-9c0-5.1,4.3-9.5,9.5-9.5h7.8c7.9,0,10.3-11,3.1-14.2c-3.8-1.3-6.4-4.8-6.4-9c0-5.2,4.3-9.4,9.5-9.4h0.9
		c8.5,0,10.3-12.2,2.2-14.6l-0.1-0.1h-0.1c-3.2-0.7-5.8-3.2-6.7-6.6c-1.3-5,1.6-10.2,6.7-11.5c8.3-2.1,6.7-14.6-1.9-14.6h-28.1
		c-24.3,0-36.2-12-34.9-36.6c0.1-4.6,0.9-9.7,1.5-14.9c1.9-14.6,4-31.2-3.5-38.4c-2.5-2.3-5.1-3.3-7.6-3.5c-1.6,0-3.2,0.3-4.5,1.1
		c-1.1,0.6-2.1,1.5-2.7,2.6l-0.1,0.2c-0.9,1.6-1.1,4-0.4,6.7c1.2,5,1.9,9.9,1.9,15c0,34.2-27.2,79.2-65.2,79.2H170.7L170.7,231.9z"
		/>
</g>
</svg>
